<?xml version="1.0" encoding="utf-8"?>
<!DOCTYPE svg PUBLIC "-//W3C//DTD SVG 1.1//EN" "http://www.w3.org/Graphics/SVG/1.1/DTD/svg11.dtd">
<svg width="20" height="20" version="1.1" xmlns="http://www.w3.org/2000/svg" xmlns:xlink="http://www.w3.org/1999/xlink" x="0" y="0"
     viewBox="0 0 159.84 159.84" style="enable-background:new 0 0 159.84 159.84;" xml:space="preserve">
    <defs>
        <linearGradient id="linear-gradient" x1="583.05" y1="24.81" x2="621.91" y2="24.81" gradientTransform="translate(-376.95 522.68) rotate(-45)" gradientUnits="userSpaceOnUse">
            <stop offset="0" stop-color="#7aa528"/>
            <stop offset="1" stop-color="#38660c"/>
        </linearGradient>
        <linearGradient id="linear-gradient-2" x1="595.25" y1="72.39" x2="651.06" y2="72.39" gradientTransform="translate(503.65 585.36) rotate(-135)" gradientUnits="userSpaceOnUse">
            <stop offset="0" stop-color="#189fb5"/>
            <stop offset="0.97" stop-color="#467fd3"/>
        </linearGradient>
        <linearGradient id="linear-gradient-3" x1="622.24" y1="72.39" x2="678.05" y2="72.39" gradientTransform="translate(41.81 716.68) rotate(-90)" gradientUnits="userSpaceOnUse">
            <stop offset="0" stop-color="#002d78"/>
            <stop offset="0.97" stop-color="#1b59b2"/>
        </linearGradient>
        <linearGradient id="linear-gradient-4" x1="651.61" y1="51.5" x2="690.47" y2="51.5" gradientTransform="translate(-417.61 483.73) rotate(-45)" gradientUnits="userSpaceOnUse">
            <stop offset="0" stop-color="#a64098"/>
            <stop offset="0.97" stop-color="#ffaef7"/>
        </linearGradient>
        <linearGradient id="linear-gradient-5" x1="622.46" y1="3.83" x2="678.27" y2="3.83" gradientTransform="translate(-411.52 -396.27) rotate(45)" gradientUnits="userSpaceOnUse">
            <stop offset="0" stop-color="#fe7300"/>
            <stop offset="1" stop-color="#edb78e"/>
        </linearGradient>
        <linearGradient id="linear-gradient-6" x1="651.61" y1="24.51" x2="690.47" y2="24.51" gradientTransform="translate(41.81 716.68) rotate(-90)" gradientUnits="userSpaceOnUse">
            <stop offset="0" stop-color="#d81a4c"/>
            <stop offset="0.97" stop-color="#ffa4ab"/>
        </linearGradient>
        <linearGradient id="linear-gradient-7" x1="583.05" y1="51.72" x2="621.91" y2="51.72" gradientTransform="translate(41.81 716.68) rotate(-90)" gradientUnits="userSpaceOnUse">
            <stop offset="0.24" stop-color="#2ea017"/>
            <stop offset="1" stop-color="#2c7013"/>
        </linearGradient>
        <linearGradient id="linear-gradient-8" x1="595.55" y1="3.83" x2="651.36" y2="3.83" gradientTransform="translate(41.81 716.68) rotate(-90)" gradientUnits="userSpaceOnUse">
            <stop offset="0.3" stop-color="#efe66f"/>
            <stop offset="0.72" stop-color="#f4c500"/>
            <stop offset="0.77" stop-color="#f4c706"/>
        </linearGradient>
        <style>.cls-2{opacity:0.67;fill:url(#linear-gradient);}.cls-3{fill:url(#linear-gradient-2);}.cls-5{fill:url(#linear-gradient-3);}.cls-6{fill:url(#linear-gradient-4);}.cls-7{fill:url(#linear-gradient-5);}.cls-8{fill:url(#linear-gradient-6);}.cls-9{fill:url(#linear-gradient-7);}.cls-10{fill:url(#linear-gradient-8);}</style>
    </defs>
    <title>PluginRox</title>
    <g>
        <g>
            <circle fill="#fff" class="cls-1" cx="79.92" cy="79.92" r="79.92"/>
            <path class="cls-2" d="M37.38,104h38a20.46,20.46,0,0,1,20.46,20.46v0a0,0,0,0,1,0,0h-38A20.46,20.46,0,0,1,37.38,104v0A0,0,0,0,1,37.38,104Z" transform="translate(-61.24 80.55) rotate(-45)"/>
            <path class="cls-3" d="M85,83.3h38a20.46,20.46,0,0,1,20.46,20.46v0a0,0,0,0,1,0,0h-38A20.46,20.46,0,0,1,85,83.3v0A0,0,0,0,1,85,83.3Z" transform="translate(99.58 -53.36) rotate(45)"/>
            <path class="cls-5" d="M100.77,65.51l26.87-26.88h0a20.47,20.47,0,0,1,0,28.94L100.77,94.44h0A20.44,20.44,0,0,1,100.77,65.51Z"/>
            <path class="cls-6" d="M64.07,35.41h38a20.46,20.46,0,0,1,20.46,20.46v0a0,0,0,0,1,0,0h-38A20.46,20.46,0,0,1,64.07,35.41v0a0,0,0,0,1,0,0Z" transform="translate(-4.95 79.34) rotate(-45)"/>
            <path class="cls-7" d="M16.41,56.09h38A20.46,20.46,0,0,1,74.88,76.55v0a0,0,0,0,1,0,0h-38A20.46,20.46,0,0,1,16.41,56.09v0A0,0,0,0,1,16.41,56.09Z" transform="translate(31.02 145.48) rotate(-135)"/>
            <path class="cls-8" d="M65.28,59.08,38.41,32.21h0a20.47,20.47,0,0,1,28.94,0L94.22,59.08h0A20.47,20.47,0,0,1,65.28,59.08Z"/>
            <path class="cls-9" d="M92.49,127.64,65.62,100.77h0a20.45,20.45,0,0,1,28.94,0l26.87,26.87h0A20.47,20.47,0,0,1,92.49,127.64Z"/>
            <path class="cls-10" d="M59.08,94.26,32.21,121.13h0a20.45,20.45,0,0,1,0-28.93L59.08,65.32h0A20.47,20.47,0,0,1,59.08,94.26Z"/>
        </g>
    </g>
</svg>