<?xml version='1.0' encoding='UTF-8'?>
<!DOCTYPE svg PUBLIC "-//W3C//DTD SVG 1.1//EN" "http://www.w3.org/Graphics/SVG/1.1/DTD/svg11.dtd">
<svg version="1.1" id="Capa_1" xmlns="http://www.w3.org/2000/svg" xmlns:xlink="http://www.w3.org/1999/xlink" x="0" y="0"
	 viewBox="0 0 512 512" xml:space="preserve">
<g>
	<path d="M469.333,426.667c-12.799,0-24.169,5.784-31.997,14.742l-54.31-27.147c0.617-2.884,0.974-5.862,0.974-8.928
		c0-3.063-0.355-6.039-0.971-8.921l54.309-27.154c7.828,8.957,19.197,14.741,31.996,14.741C492.854,384,512,364.865,512,341.333
		c0-23.531-19.146-42.667-42.667-42.667c-23.521,0-42.667,19.135-42.667,42.667c0,3.063,0.355,6.039,0.971,8.921l-54.309,27.154
		c-7.828-8.957-19.197-14.741-31.996-14.741c-23.521,0-42.667,19.135-42.667,42.667S317.813,448,341.333,448
		c12.797,0,24.163-5.78,31.991-14.734l54.314,27.148c-0.616,2.882-0.971,5.857-0.971,8.919c0,23.531,19.146,42.667,42.667,42.667
		C492.854,512,512,492.865,512,469.333S492.854,426.667,469.333,426.667z M469.333,320c11.771,0,21.333,9.573,21.333,21.333
		c0,11.76-9.563,21.333-21.333,21.333c-11.771,0-21.333-9.573-21.333-21.333C448,329.573,457.563,320,469.333,320z
		M341.333,426.667c-11.771,0-21.333-9.573-21.333-21.333c0-11.76,9.563-21.333,21.333-21.333
		c11.771,0,21.333,9.573,21.333,21.333C362.667,417.094,353.104,426.667,341.333,426.667z M469.333,490.667
		c-11.771,0-21.333-9.573-21.333-21.333c0-11.76,9.563-21.333,21.333-21.333c11.771,0,21.333,9.573,21.333,21.333
		C490.667,481.094,481.104,490.667,469.333,490.667z"/>
	<path d="M234.667,256c70.583,0,128-57.417,128-128S305.25,0,234.667,0s-128,57.417-128,128S164.083,256,234.667,256z
		M234.667,21.333c58.813,0,106.667,47.854,106.667,106.667s-47.854,106.667-106.667,106.667S128,186.813,128,128
		S175.854,21.333,234.667,21.333z"/>
	<path d="M288,448H42.667c-11.771,0-21.333-9.573-21.333-21.333v-15.615c0-28.146,15.688-53.677,40.917-66.635
		c40.646-20.875,103.563-45.75,172.417-45.75c61.896,0,118.917,20.469,155.833,37.646c5.313,2.427,11.688,0.167,14.167-5.177
		s0.167-11.688-5.167-14.177c-38.875-18.073-99.042-39.625-164.833-39.625c-73.104,0-139.417,26.156-182.167,48.104
		C20.125,342.063,0,374.875,0,411.052v15.615c0,23.531,19.146,42.667,42.667,42.667H288c5.896,0,10.667-4.771,10.667-10.667
		S293.896,448,288,448z"/>
</g>
</svg>
